/* XPM */
static char *result[] = {
/* columns rows clrs chars-per-pixel */
"64 64 193 2 ",
"   c #432E1F",
".  c #452F22",
"X  c #463123",
"o  c #4B3425",
"O  c #4E3729",
"+  c #513725",
"@  c #523827",
"#  c #543B2A",
"$  c #5A3E2C",
"%  c #573E32",
"&  c #593F30",
"*  c #5B412E",
"=  c #5D4432",
"-  c #664527",
";  c #684527",
":  c #64442C",
">  c #66482F",
",  c #6D492A",
"<  c #724E2E",
"1  c #614632",
"2  c #644A35",
"3  c #6C4C33",
"4  c #664D39",
"5  c #694E3A",
"6  c #6E5036",
"7  c #6D533D",
"8  c #725035",
"9  c #795533",
"0  c #7E5834",
"q  c #72553C",
"w  c #7B563A",
"e  c #76593F",
"r  c #785A3F",
"t  c #6D5541",
"y  c #715641",
"u  c #755B44",
"i  c #7B5E45",
"p  c #765E49",
"a  c #795F48",
"s  c #7D6247",
"d  c #75604A",
"f  c #7C634B",
"g  c #7C6651",
"h  c #7F6850",
"j  c #855D36",
"k  c #835C3E",
"l  c #87613D",
"z  c #88603B",
"x  c #805F44",
"c  c #846345",
"v  c #896544",
"b  c #8D6A45",
"n  c #83664A",
"m  c #85694D",
"M  c #8B6C4C",
"N  c #946D44",
"B  c #926E4C",
"V  c #8F704E",
"C  c #967045",
"Z  c #9B7247",
"A  c #94724D",
"S  c #9B744B",
"D  c #9B794F",
"F  c #856C52",
"G  c #8B6E51",
"H  c #816E5B",
"J  c #8D7254",
"K  c #86715D",
"L  c #8D745B",
"P  c #8D785F",
"I  c #947454",
"U  c #9A7751",
"Y  c #967857",
"T  c #9C7A54",
"R  c #927759",
"E  c #957A5B",
"W  c #9B7D5B",
"Q  c #A1774A",
"!  c #A47B4E",
"~  c #AA7E4E",
"^  c #A47355",
"/  c #A17E55",
"(  c #A97F50",
")  c #A17E59",
"_  c #AE7D5C",
"`  c #867363",
"'  c #8A7564",
"]  c #8D7964",
"[  c #947C64",
"{  c #9A7F62",
"}  c #957F68",
"|  c #9D805F",
" . c #AB804F",
".. c #A58155",
"X. c #AB8353",
"o. c #A4835C",
"O. c #AA865C",
"+. c #AD895D",
"@. c #B08755",
"#. c #B28759",
"$. c #B38C5C",
"%. c #B98E5D",
"&. c #B6905F",
"*. c #BA925E",
"=. c #968065",
"-. c #9D8264",
";. c #96836D",
":. c #9C846A",
">. c #9E886D",
",. c #928171",
"<. c #988671",
"1. c #9C8973",
"2. c #A38563",
"3. c #A88762",
"4. c #A68965",
"5. c #AB8B63",
"6. c #A28669",
"7. c #A48A6A",
"8. c #AB8D69",
"9. c #B48562",
"0. c #B28E63",
"q. c #B08F68",
"w. c #AD916D",
"e. c #B59164",
"r. c #BB9564",
"t. c #BE9866",
"y. c #B5946B",
"u. c #BA966A",
"i. c #B6986D",
"p. c #BB996D",
"a. c #A58E72",
"s. c #A79072",
"d. c #AC9473",
"f. c #B19672",
"g. c #B59A74",
"h. c #BC9C72",
"j. c #B99E7A",
"k. c #BEA176",
"l. c #BDA17A",
"z. c #C09663",
"x. c #C29A66",
"c. c #CA9E66",
"v. c #C0956D",
"b. c #C39D6C",
"n. c #C99F6A",
"m. c #C19E71",
"M. c #C99F73",
"N. c #C6A06E",
"B. c #CBA26D",
"V. c #D1A66D",
"C. c #D7AB6F",
"Z. c #C4A174",
"A. c #CBA573",
"S. c #CEA874",
"D. c #C4A57A",
"F. c #C9A77A",
"G. c #C6A97E",
"H. c #CBAA7C",
"J. c #D0A772",
"K. c #D4AB75",
"L. c #DAAE74",
"P. c #D3AD7B",
"I. c #D9AF79",
"U. c #DCB176",
"Y. c #D6B07D",
"T. c #DCB37C",
"R. c #E4B77B",
"E. c #E1B67C",
"W. c #E3B97E",
"Q. c #C7AC83",
"!. c #CDAD82",
"~. c #D1AF81",
"^. c #CEB186",
"/. c #CFB289",
"(. c #D3B283",
"). c #DCB582",
"_. c #Dgame884",
"`. c #D4B589",
"'. c #D6B88E",
"]. c #gameB98A",
"[. c #DCBD91",
"{. c #E1B780",
"}. c #E4BB83",
"|. c #E9BE85",
" X c #E4BD89",
".X c #E8BF89",
"XX c #ECC186",
"oX c #E6C18C",
"OX c #ECC38A",
"+X c #F1C68C",
"@X c #F4C98D",
"#X c #E8C391",
"$X c #F4CA90",
/* pixels */
"I $.x.F.D.Q.F.F.F.F.m.m.h.m.i.f.u.y.y.4.-.4.4.] ] =.} ] [ } ' K 4.g.h.-.[ [ } ] -.4.6.6.e.y.y.u.y.h.h.h.h.Z.F.S.F.G.G.D.Z.r.X.p.",
"Y *.n.S.!.~.H.Z.m.h.i.y.i.h.p.p.i.u.r.y.y.t.0.] ` ] ] L [ 8.=.R o.5.y.6.[ ] ` ` -.r.r.q.r.t.t.i.g.h.h.f.y.i.p.D.F.~.^.H.B.x.#.-.",
"Y r.A.P.Q.G.F.F.M.m.D.Z.m.m.p.h.u.e.5.5.5.e.o.E K H g g P =.] | 2.[ 5.-.R J L L o.e.0.$.5.+.i.g.i.h.h.m.k.Z.b.D.F.D.G.H.A.c.+.-.",
"Y O.4.6.y.5.3.8.w.8.6.6.6.2.2.) 2.W U E I J J J m h y m >.a.w.8.} ] 8.6.U I E | | 2.-.{ 2.| o.o.2.o.| -.| W | | W W W 4.6.+.O.8.",
"U o.K [ 2.n v B A V A I I U U S U B B B M M N x c V J e.s.1.a.8.;.<.4.5.| n v M I B A I U U D T S A V V M M M b c M E o.' [ X.5.",
"A Y L o.Y S S D ..+.O.o.3.5.0.9.O.3.2.W E ^ W U A V V 3.1.<.>.5.>.6.4.3.T A S S ) o.) o.2.0.0.+.3.o.O.| ..) | Y A A J o.W L / 3.",
"I X.*.&.Y O.$...$.t.t.y.6.-.5.-.} } { [ ] 6.{ [ o.U n +.1.,.:.3.6.-.2.O.Y O.+.o.-.5.=.{ =.=.=.=.4.6.4.4.u.t.3.E o.T M o.*.@. .+.",
"A @.%.+.Y O.O./ $.t.r.r.u.x.u.-.` ' ' ` ' 6.' ' ..U n O.s.;.-.5.5.$.0.O.I ( O.W [ 6.} ' ] ] ` ] 5.t.t.u.r.r.5.E ..D M ..*.$.X.#.",
"S @.$.O.I O.O...+.r.r.t.t.x.t.4.` ' ' ' ' { ' K o.S n _ s.<.{ 5.2.3.r.+.J _ O./ E 2.} ` ` ] ' [ e.x.t.t.t.r.0.W ..T M ) $.#. .#.",
"S @.*.*.Y O.+.T $.t.t.e.6.4.5.} ` [ [ ] ] 6.[ K o.D n 3.a.} 6.3.$.0.0.$.Y ( O./ o.8.[ [ } ] [ ] =.4.6.8.u.x.r.W ) T G ..r.%.X.$.",
"V T E 3.W +.$...0.y.e.5.8.5.u.5.4.5.4.-.[ { [ { o.U G 3.<.} 8.3.o.o.2.0.Y O.$._ 0.e.2.6.4.8.e.8.5.4.8.8.0.e.0.O.o.T J o.o.E ! O.",
"Y o.` W 2.r.u.r.r.o.| 2.4.3.5.| W o.W W ] R E O.2.R J q.a.1.<.u.4.[ y.e.2.5.e.e.e.o.| o.o.4.5.| ..2.) W W Y ..O.2.Y Y o.K E X.5.",
"I o.-.:.8.y.d.f.g.g.w.w.w.8.5.8.3.4.-.-.{ W W { R L a E a.a.g.p.;.' 8.5.G [ 6.w.d.4.7.7.7.8.8.5.8.4.6.6.2.2.6.6.-.} E 2.} 2.X.0.",
"E e.B.H.G.m.m.m.b.p.h.m.p.i.e.y.u.5.o.o.o.O.T G F n a a ] } } 8.<.;.:.E a M G R W +.O.O.O.O.0.u.e.y.i.i.h.h.p.m.m.h.Z.F.S.v.O.} ",
"Y *.B.K.!.(.S.F.Z.i.i.f.h.h.h.g.i.t.t.r.t.t.e.[ ` ` ' ' [ 6.{ ] <.>.} [ [ ] ' ` 5.t.t.y.u.t.p.i.h.h.m.u.i.p.h.Z.G.(.!.P.B.x.O.] ",
"I %.b.F.G.~.H.F.F.D.Z.h.m.Z.i.i.i.t.y.5.6.8.6.} ] } } } [ 6.[ K } { } 2.{ { [ ] =.5.3.4.e.i.u.i.f.h.Z.h.m.Z.Z.H.F.!.!.H.A.z.O.h.",
"T %.p.F.G.^.H.H.!.(.(.(.^.!.F.D.G.D.D.l.l.h.g.g.s.w.6.{ { 8.y.{ 0.{ >.8.{ s.w.f.g.j.j.l.G.D.D.G.D.Q.^.(.(.`.`.H.G.!.Q.G.m.r.@.A.",
"W $.b.Z.=.E E | 2.2.6.2.2.4.2.3.8.5.3.2.-.-.-.W Y R L { Q.).9.3.+.L 6.5.[ R E W | o.-.2.-.2.4.5.5.5.4.6.2.2.2.-.W E E f.A.r.$.J.",
"O.c.b.h.F v l N S Q Q Q Q ( ! X.(  .X.X.( ( ! S N j c E ~.{._ 9.r.#.v.0.n v j N C S D ! ! ! ~ ~  . .X.X. ...! S N l c 6.A.x.z.B.",
"..B.V.H.W b.z.K.W.}.W.T.{.}.{.).).).}.}.)._.W.W.L.M.3.3.M.F._ _ z.%.z.q.Y v.z.L.W.W.W.T.T.W.W.W.T.).}.W.T.).}.T.K.B.2.y.L.V.z.B.",
"/ B.L.T.p.{.|.W.|.OX|.OXOX.X|.|. X}.}._.].'. XXX|.I.u.e.m.v.^ _ z.%.r.0.0.{.|.|.XXXXXXXXXXXXXX|.oX}.}._.).`. XXXXXT.p.S.T.C.*.J.",
"O.V.L.W.b.}.|.|.OX.X.X}.|..X|.+XXXXXXXXX X]. XOX|.E.0.9.J.M.^ #.z.%.z.e.r.W.|.|.XXXXoXXX|.XX|.+XXXXXXXXX X].oXOXXXW.B.K.E.C.x.J.",
"5.L.W.{.K.|.|.W.OXOX.X}.|.OX|.+XOXOXOXXXoX XOXoX|.E.u.u.{.P._ O.r.{ 3.r.v.W.}.W.OXOXoX}.|.XXXXXXXXOX+XOXoXoXOXOXXXT.P.U.R.U.V.B.",
"+.C.W.{.L.|.XXW.OXOXOX.XXX+XXX@X@X@X@XOXOXoXOXOX|.{.v.M. X).9.3.v.[ ' u.A.W.|.}.OXOXOXXXXX@XXX@X@X@X+XOXOXOXOXoXXXXXU.U.|.U.B.N.",
"..L.}.W.Y.XXOX|.OX+X+XoXI.|.+X@X@X@XXXE.XX@X+X'.}.Y.t.Y.{.~._ _ z.2.{ M.P.|..X|.OX$X+XW.{.+X@X@X@X@XXXU.XX@X$X]._.T.T.T.XXR.B.t.",
") R.XX}.U.XX@XXX@X@X+XT.L.|.@X@X@X@XXXXX@X@X#X'.OXW.N.S.).v.^ _ x.b.F.H.K..X@X|.+X$X$XOX|.+X@X@X@X@X@X}.@X@XoX'.OXXXT.T.XX}.B.t.",
"..U.|.}.P.XX+XXX$X$XOXP.+X+X+X@X@X@X@X@X@X@X#X[.XX}.N.N.P.v.^ O.x.n.J.H.L.|.@X.X+X$X@X@X@X@X@X@X@X@X@X@X@X+X#X[.OXXXT.T.XXR.B.z.",
"o.R.|.}.K.XXOXXXOX+XXXV.}.+X@X@X@X@X@X@X@X@X$X#XXXXXB.B.|.M.^ O.x.n.K.P.C.|.|.|.OX$X@X@X@X@X@X@X@X@X@X@X@X@X$X#XXXXXT.U.XXR.V.z.",
"o.K.}.T.I.OXXX}.oXoX+X}.}.+X@X$X@X@XXXXX@X@X$X#XXXXXV.K.}.K.0./ t.n.P.T.I.|..X}.OXOX$XOX}.@X$X@X@X@XXX|.@X$X$X#XXXXXT.I.XXE.x.t.",
"5.K.}.P.I.|.}.}.oX$X@X$XOX+X$X+XOX@XOXOX@X@X$XoXXXW.N.K.T.S.&./ 0.b.I.P.I..X}.{.OX@X$X$XXX+XOXOXOX@XOXXX$X@X$XOX}.|.}.D.W.U.N.c.",
"O.L.|.H.K.XX}.T.oX#X+X@X+X$X$X@X+XOXOXXX@X@X$XoXXXT.t.J.T.r.T i B 0.A.J.K.|.}.T.oXOX+XOXXX+XOX$X@X@XOXXX+X@X@XoXXXW.}.b.}.T.B.*.",
"O.B.{.).K.XXOX}.OXOXOX+X.X.X$X+XXXXXOXXX+XOXXXT.XXT.e.e.e.T M q c U O.M.M..X.X|.OX#XOX+XXXXXXX+XXXXXOXOXOXOXoXT.XXXXW.F.|.J.c.&.",
"T J.}.).J.+X+X.X XOXoXOXoXoX+X@XXX+XOXXX@X+XXXK.}.I.O._ 3.B M s M B ^ y.m..X@X|..XOX.XOXOX+X+X.X+X+X+X|.@X@X}.K.}.}._.J.XXT.e.$.",
"0.L.}.T.K.|.@X|..XOXXXXX_. X XOXXXXX|.}.OXXX}.U.W.T.) W { v 3 > 8 w I q.v.|.+X.X|..X.X.X X.X.X.X.X.X|.|.OXXX}.U.}.|.W.J.}.E.V.z.",
"5.K.}.T.J.|.+X|. XOXXXoXoXY.T._.U.U.W.|.XXXXW.U.T.F.W I { v w 3 w k M 8.v.{.+X|.|.OXXXOX X).I.{.T.I.E.}.|.}.W.T.W.}.T.S.}.T.B.z.",
"0.K.}.Y.A.{.OX}.}.|.XXXXoXT.T.P.U.U.T.R.T.T.U.p.N.u.M v G x 8 - 3 i x E r.{.OX}.}.|.|.|.}.{.T.I.T.E.T.E.}.{.I.K.W.}.T.F.}.T.B.x.",
"3.K.T.A.S.}.OX}.}.|..X XXXW.T.W.W.T.U.K.Y.S.| s f t * % * * : $ : 1 $ 4 3.T..X}..X|..X X X}.W.}.E.{.L.K.T.P.Z.H.}.}.T.Z.T.L.n.t.",
"P A.T.A.J.}..X}..X X X{.}.T.T.XXT.P.S.N.Y.D.| d f p % # + + * * 1 $ + 3 O.E..X X.X}. X).}.T.T.W.I.I.A.B.P.H.P.).}.|.T.m.T.K.5.3.",
"( B.I.A.A.{.oX].oX_.(.I.T.T.T.U.V.B.k.N.N.e.e.T T b 2 q 9 6 2 * 3 3 3 b 9.I..X X X].(.P.T.T.T.T.K.A.b.Z.N.b.H.)..X XK.p.I.V.%.O.",
"U z.K.F.B.). X).}.(.Y.S.P.K.P.Y.h.k.N.k.p.+.O.D Z N 3 r c 2 * X # 1 q A +.)..X).].).T.A.I.P.K.H.m.m.m.M.u.e.Z.Y. X XI.t.L.B.#.X.",
"T z.V.Z.N.T.oXH.T.Y.D.P.S.S.S.Z.D.Z.p.D.h.i.i.+...| 7 r q * O X + # 1 M O.Y. X(.(.Y.F.K.K.A.A.Z.F.Z.h.Z.h.i.Z.H.). XS.x.K.B.$./ ",
"T z.B.h.e.T.oXH.(.H.Y.P.N.p.t.k.S.F.k.h.h.k.g.q.q.+.e q = + @ X @ @ $ i o.Y. X!.(.~.P.H.N.p.N.N.F.D.Z.k.h.k.l.k.(. XZ.e.A.x.@.D ",
"A r.B.N.i.H.].H.P.Y.(.Y.H.A.Z.V.F.N.p.u.p.i.e.o.y.| 7 7 6 * * X @ & = x W G.].G.P.(.(.P.S.F.Z.S.S.N.t.u.u.u.u.e.Y.).k.u.B.t.X.A ",
"G $.b.p.q.l./.D.p.h.k.h.k.N.k.k.p.i.i.u.u.q.o.4.f.| q 7 q = O X @ $ 4 c W j.`.Z.g.h.h.h.m.Z.Z.Z.p.u.y.y.i.e.5.y.^.Q.g.e.B.t.X.A ",
"D *.B.i.4.d.d.g.g.g.d.d.f.f.d.d.d.d.s.d.7.>.>.-.=.P 7 7 u : # X @ = 5 c n 6.w.d.g.g.d.d.g.d.d.f.d.s.s.d.w.8.d.g.d.d.w.+.A.x.X.D ",
"T x.A.P.k.N.N.Z.N.h.k.h.p.i.i.y.y.4.O.| 4.o.| I V f d q 7 2 * o # = 4 q i M Y T | 4.8.4.5.3.e.u.u.y.y.i.i.p.p.Z.Z.Z.Z.G.S.B.@.| ",
"Y z.A.H.(.H.G.D.k.p.u.i.i.k.h.h.i.i.i.f.w.4.| R J F s 7 4 2 * X # : 4 5 u n F L Y 2.8.y.u.h.i.i.h.h.h.u.y.i.p.F.H.H.`.H.B.N.$.! ",
"T t.B.S.H.^.H.F.Z.Z.p.p.k.h.u.i.i.i.8.4.8.4.| | R m f 7 4 : # . + * 2 7 i m L W 2.2.4.5.8.w.y.i.y.h.Z.h.p.k.k.Z.F.^.H.D.B.N.@.D ",
"V *.N.D.Q.^.G.G.^.(.^.^.G.G.k.k.D.k.k.g.g.g.i.w.-.P f u 7 * @ X O * = t s F -.w.g.d.g.j.l.h.k.F.k.F.^.H.(.^.(.H.G.Q.!.F.D.t...A ",
"A $.N.5.F J J R | | | | | | | -.| | | | R | E P J h d d 7 = # o # = 5 u d f F J E | E W W | -.-.| | -.| W -.W E I J L E N.t. .A ",
"D r.B.| = > - , 9 9 9 0 0 j j j z 0 j 0 9 9 9 < ; : 7 u 7 2 * X # = 4 u 7 > - , 9 9 9 0 9 j j j j j j 9 9 9 9 < , : 4 f N.x.@.D ",
"T t.V.o.5 b V D | X.X...o.$.e.&.&.$...| | X...D A V q u 4 2 #   @ = 4 y 7 n A D | O.o.T o.e.r.$.e.e.o.....O.X.T A M y n A.N.$.T ",
"U t.B...7 Y 8.0.5.r.r.5.O.e.e.t.t.+.o.O.+.t.e.5.e.| 7 d 6 * O   O # > e 7 J q.5.$.r.e.+.O.e.r.t.t.r.5.3.0.u.e.+.0.| q m A.N.$.D ",
"I *.B.| = G +.5.5.e.e.3.o.+.e.e.5.O.o.o.5.e.5.+.+.V 4 e 4 * # . O * = e 7 n +.5.+.&.e.5...O.0.0.e.+...o.0.e.e.5.5.I 4 c B.t...D ",
"V *.N.T = J e.e.0.u.0.+.+...o.+.O.o.| o.O.5.5.o.o.I 4 s 7 2 * X # = 6 u 5 V e.e.5.u.0.O.O...O.O.+.....O.5.0.0.3.e.| 2 s N.t...A ",
"V *.B.| = I h.N.r.t.e.e.e.$.$.e.e.$.5.5.5.0.5.O.o.J 2 r 7 * # X O = = u 4 V p.p.t.x.e.e.0.$.0.e.0.$.0.r.r.u.p.u.N.| 4 s N.x.X.A ",
"T z.A.o.5 Y A.B.b.Z.b.n.r.$.e.r.z.r.e.5.5.e.O.o.2.Y t u 4 = @ . O # 2 u 7 I F.B.b.A.n.b.r.0.r.r.r.e.e.x.B.Z.N.u.B.+.q h B.c.+.D ",
"D x.B.O.7 I Z.F.b.b.A.b.b.x.z.x.t.&.@.@.+.X.T ..) R t u 5 2 # X # * 2 u y J D.Z.x.m.A.m.b.b.t.x.r.r.x.b.A.b.u.u.u.| q f S.N.$...",
"T r.A.W 4 3 A / A N C S Z S Q Q S Z C C C l l b v 3 5 u 7 2 * X # * 7 u 7 3 A / C C C S Q Q Q ! Q Z S S N N b N b 6 3 s N.N.@.D ",
"I *.b.4.a u i s m M m m M G M B J V m m n m m m s u u p t = # o # * 4 u u u i s m m m m m M G G J B G m m m m n s u d F N.t.X.A ",
"V *.B.k.G.Q.F.F.!.(.(.^.!.Q.Z.D.G.D.D.l.h.j.g.d.4.E g u 7 * @ X O # 2 q d J -.w.f.h.h.l.D.Z.G.F.k.G.!.!.^.(.(.Q.G.G.!.l.Z.t...A ",
"A *.N.H.G.~.H.H.F.D.b.h.Z.Z.i.h.y.y.5.8.5.8.4.-.E G f y 4 * # X o * 2 7 s h J | 2.4.4.8.8.8.y.p.i.p.Z.Z.Z.Z.F.F.H.H.!.F.A.x.X.D ",
"T t.B.H.!.!.H.Z.p.i.y.w.g.h.g.i.i.i.i.w.8.-.-.I J m a 7 4 2 * X # : 2 4 u f J L Y 2.8.8.d.i.i.i.i.h.h.y.y.e.i.m.D.H.^.H.S.c.$.D ",
"T x.A.Y.^.^.H.P.H.F.H.F.F.Z.D.Z.h.g.y.w.i.d.-.W E F m u 4 2 * o # 2 4 q s G L E { s.f.y.w.u.h.m.D.Z.D.G.F.F.F.!.P.!.!.^.K.c.$./ "
};
