/* XPM */
static char *result[] = {
/* columns rows clrs chars-per-pixel */
"64 64 170 2 ",
"   c #040404",
".  c #070807",
"X  c #080807",
"o  c #070709",
"O  c #0A0A0A",
"+  c #16130D",
"@  c #111110",
"#  c #1E1C16",
"$  c #1B1D19",
"%  c #141B1A",
"&  c #211C14",
"*  c #17201E",
"=  c #1C221D",
"-  c #25241B",
";  c #2C2B1D",
":  c #332C1D",
">  c #131F20",
",  c #152223",
"<  c #2B2B24",
"1  c #2A2C28",
"2  c #302F25",
"3  c #2F3026",
"4  c #2D3029",
"5  c #34332C",
"6  c #3A362E",
"7  c #37382E",
"8  c #3D392F",
"9  c #313225",
"0  c #363531",
"q  c #393533",
"w  c #363A32",
"e  c #3B3C34",
"r  c #3D3D39",
"t  c #413E36",
"y  c #413E3A",
"u  c #3E4236",
"i  c #3E423A",
"p  c #424036",
"a  c #44433B",
"s  c #4A463D",
"d  c #4B493E",
"f  c #44493C",
"g  c #3C4643",
"h  c #3A4847",
"j  c #444641",
"k  c #494641",
"l  c #464943",
"z  c #4C4C44",
"x  c #4C4D4A",
"c  c #524D44",
"v  c #524F49",
"b  c #4E5146",
"n  c #4F5249",
"m  c #535246",
"M  c #54534B",
"N  c #5A554C",
"B  c #56594F",
"V  c #5B594D",
"C  c #4E5550",
"Z  c #565651",
"A  c #595651",
"S  c #565953",
"D  c #5C5B53",
"F  c #5C5D5A",
"G  c #635B47",
"H  c #615A4C",
"J  c #625E55",
"K  c #615F5A",
"L  c #5F6156",
"P  c #5E615A",
"I  c #636256",
"U  c #64635B",
"Y  c #69665C",
"T  c #6B6A5E",
"R  c #65695F",
"E  c #70685B",
"W  c #5F6A66",
"Q  c #646562",
"!  c #6A6763",
"~  c #666963",
"^  c #6C6B63",
"/  c #676768",
"(  c #6D6C6B",
")  c #716D64",
"_  c #726F6C",
"`  c #796F64",
"'  c #6E716C",
"]  c #737166",
"[  c #787165",
"{  c #74726B",
"}  c #7A756C",
"|  c #7B796D",
" . c #6E7072",
".. c #747473",
"X. c #797673",
"o. c #767972",
"O. c #7C7A74",
"+. c #7A7779",
"@. c #77797B",
"#. c #7C7B7B",
"$. c #74747A",
"%. c #817D74",
"&. c #827E7B",
"*. c #7F817C",
"=. c #858076",
"-. c #8A8477",
";. c #84827D",
":. c #89847D",
">. c #918C7F",
",. c #7D7E80",
"<. c #817E80",
"1. c #7E8181",
"2. c #848484",
"3. c #8A8683",
"4. c #868885",
"5. c #8C8A85",
"6. c #858589",
"7. c #898689",
"8. c #87898B",
"9. c #8C8B8B",
"0. c #918C87",
"q. c #928D8C",
"w. c #8F908D",
"e. c #93918D",
"r. c #98928E",
"t. c #8E8D91",
"y. c #928E92",
"u. c #8D9192",
"i. c #949393",
"p. c #9A9594",
"a. c #979996",
"s. c #9C9996",
"d. c #96949A",
"f. c #999699",
"g. c #969899",
"h. c #9C9B9B",
"j. c #A19B97",
"k. c #A29D9C",
"l. c #9EA19D",
"z. c #A4A19E",
"x. c #A9A39E",
"c. c #9E9DA1",
"v. c #A19EA2",
"b. c #A29FA9",
"n. c #9EA1A1",
"m. c #A4A3A3",
"M. c #AAA5A4",
"N. c #A7A8A5",
"B. c #ACA9A6",
"V. c #A5A4A9",
"C. c #AAA6A9",
"Z. c #A6AAAC",
"A. c #ADABAB",
"S. c #B1ABA6",
"D. c #B1ADAC",
"F. c #AFB1AD",
"G. c #B4B1AE",
"H. c #B9B2AF",
"J. c #ADAgame0",
"K. c #B1AEB0",
"L. c #AFB1B2",
"P. c #B5B2B2",
"I. c #BAB5B3",
"U. c #Bgame8B6",
"Y. c #B8B7B8",
"T. c #B7B8BA",
"R. c #BCB9BA",
"E. c #C0B6B5",
"W. c #C2BEBD",
"Q. c #C2BEC0",
/* pixels */
"@ @ O X X X     X X O O . . O O o     X X           o   O @ O   X X X X     X X                         .     O O     . O O X X ",
"c b w # 6 p 8 < < 5 p r p e r r 0 < < q q q 2 4 5 9 & $ u a 5 7 7 e r 6 u r A l w i a l j j n i z i g M a u j Q B k z s k a f e ",
"5 9 7 q x r a B M x 9 p I F A a 0 x q r r y q < 0 5 r < 2 - i a 7 B n B I d U M n a a z M M B Z / Q e b l M L ^ I I ] D Q m p B ",
"k M d a k a a z b l s k U U A k k C y v B x y 4 q t e q d t a e 3 B z a p 3 u 5 e u l x l g M D T M w x e i t a s p b z Y c e z ",
"^ { J d I ^ I L Y D ^ K U U ( ^ x M M U / F x y N K s a I Y d a u D m a f t s f i B R U U U T L U D Y ) b f p B z z M N T B l b ",
"M I m N Y m B U ^ ! U N ^ ~ U k q c A A v v v k a k N y m c z m a n z M c a b Z Z M b B T Z l M L P B V b R ~ I m c D D D b m D ",
"I I M V Y J U ^ U Y | ) } _ / A y A K K ! _ / A c N B a M m A D m z A J I A D N L Z B L T ~ D R ^ ) I U D { T U I Y ^ ^ L M U U ",
"^ ) I K U } O.^ F ^ [ ( ( K ! ] N K ! _ ! ! A K I K A v K J K A B D U v U Y U V b D U U R P ~ T U R ^ O.^ U I ^ O.{ U U ] U U ^ ",
"J K m B J A U X.{ ^ N z m J N z y v N D v D F A z M M k c N A m d K Y V M z b l M M M B R L n l D U D D N V B M N D J [ { I B ! ",
"{ X.` [ } D ] } { } ` D ^ #.Y J m J U U D ! ( Q N A ^ K E Y ) Y D Y I ] Y m U D { T ~ ^ ' ^ ^ ' | ] ] ] T *.] ^ Y Y | | ) ) E | ",
"O.7.#.( ' _ #.....&.u.2.;.9.+.2.( ( X.$...( / / ( Q ! K &...F / ../ +.{ / ' ....@. .6.6.@...9.8.*.6.8.2.#.;.1.1.X.O.O.2.1.X.#.Q ",
"e.h.c.h.h.i.l.i.g.y.y.9.9.8.d.t.6.9.6.8.y.t.t.7.9.2.d.9.i.5.O.t.i.i.i.9.6.9.w.w.w.*.l.i.i.d.h.w.g.L.Z.A.a.w.l.n.f.i.a.n.m.h.m.i.",
"9.v.h.m.h.q.i.m.m.i.i.4.y.g.h.f.d.y.6.7.7.7.9.6.6.2.i.i.y.7.2.i.9.u.w.a.i.9.8.i.g.*.9.g.g.9.a.9.l.Z.N.m.4.s.N.u.f.n.N.a.n.h.c.m.",
"i.v.9.l.p.s.m.h.M.i.h.q.h.i.i.k.m.g.9.q.9.t.t.9.t.2.i.2.4.w.4.4.4.a.w.0.i.9.u.a.4.4.l.g.6.5.f.a.w.N.N.Z.p.5.l.l.h.m.l.a.A.n.5.a.",
"e.9.5.5.;.9.w.i.f.i.h.k.x.v.v.h.q.9.d.y.d.y.y.7.2.O.@.O.;.=.#.&.2.i.0.w.i.a.a.a.i.h.l.i.N.i.a.f.i.Z.l.a.N.z.N.N.Z.N.n.a.l.h.9.4.",
"p.q.i.h.i.2.9.a.m.f.h.z.m.m.v.f.y.f.c.i.d.d.f.2.+.#.9.9.#.7.9.i.9.w.@.a.m.c.f.f.g.n.m.m.Z.a.a.h.z.L.N.l.A.A.m.m.M.D.P.w.i.a.m.l.",
"f.a.M.m.l.N.A.l.m.p.s.p.q.s.f.i.f.j.i.i.i.i.t.2.d.9.q.h.9.9.2.e.2.f.5.5.m.v.h.a.i.l.l.N.n.a.l.a.i.F.l.n.h.N.l.M.F.F.A.4.N.p.i.g.",
"z.x.z.l.h.s.s.s.k.k.z.k.k.s.f.h.f.h.f.i.i.t.7.2.7.0.q.q.p.p.e.3.;.a.e.i.c.z.a.l.l.m.N.A.N.h.Z.M.z.Z.N.F.A.A.A.A.A.A.B.a.N.k.9.z.",
"5.a.l.M.j.q.5.0.p.j.a.k.M.m.0.q.g.h.f.d.y.i.y.2.<.0.p.i.5.:.4.5.O.u.X.i.V.k.f.z.h.N.A.P.Z.m.m.h.M.D.N.x.B.G.B.A.m.G.P.9.a.w.0.a.",
"0.z.M.F.M.h.B.N.B.m.M.V.h.p.h.f.i.g.d.v.f.8.y.d.y.q.j.j.a.5.2.s.;.4.i.x.k.e.e.z.N.h.N.i.a.z.a.h.h.N.N.N.G.S.D.M.s.N.G.A.a.w.x.z.",
"G.G.A.P.D.A.K.K.A.m.A.m.s.v.m.v.f.c.f.v.d.6.q.d.f.f.m.k.z.m.j.z.h.h.m.j.M.s.a.x.k.k.N.2.a.f.N.V.N.A.L.L.G.A.G.S.M.S.G.S.G.Z.A.A.",
"B.x.N.P.I.I.K.J.P.m.j.p.h.h.q.v.c.h.v.k.g.d.i.9.h.m.V.v.p.s.m.m.m.N.s.p.k.h.z.a.k.h.l.z.m.a.l.N.N.M.A.F.A.N.N.N.F.B.N.x.G.I.G.I.",
"M.G.P.G.P.P.C.A.A.h.m.m.k.M.v.m.m.v.f.k.f.f.f.i.j.v.x.m.M.k.s.N.m.a.q.p.z.s.j.h.M.m.Z.B.F.n.l.A.G.G.B.N.m.A.F.B.x.F.F.j.N.Z.I.B.",
"M.P.M.A.Y.Y.A.m.v.h.D.m.h.v.v.C.k.k.v.f.k.d.i.d.k.v.m.h.m.k.i.z.m.h.a.r.z.s.k.l.m.m.D.m.M.m.l.Z.A.F.F.P.m.A.D.A.B.x.D.s.A.J.P.M.",
"M.D.A.G.N.N.M.G.A.A.K.J.H.D.C.v.V.m.f.v.y.y.y.7.y.p.k.h.k.j.q.0.q.p.r.e.r.r.h.z.m.M.A.L.P.P.I.P.P.R.I.G.G.F.D.A.N.x.z.z.x.z.s.a.",
"l.A.D.A.F.B.G.A.D.J.A.V.v.b.b.m.M.v.k.f.f.d.y.y.p.f.f.v.x.p.i.h.k.j.p.a.k.s.j.z.N.A.Z.J.A.N.A.G.F.I.F.P.I.I.G.A.B.S.A.m.x.F.B.N.",
"m.F.B.M.x.B.A.h.k.v.m.V.k.j.f.C.v.c.b.v.b.k.p.f.p.p.a.h.k.h.i.s.k.m.s.j.k.a.z.z.M.m.B.Z.n.i.m.A.l.m.D.P.B.F.G.A.B.B.A.M.D.G.M.B.",
"z.x.D.A.B.S.D.m.C.A.C.m.b.m.b.V.v.v.v.v.v.d.p.d.h.h.h.k.j.i.p.j.s.k.M.m.m.M.h.z.m.N.A.A.m.Z.P.K.M.Z.Z.A.A.F.P.A.G.G.G.G.P.N.N.B.",
"l.x.B.A.A.A.C.M.D.K.A.v.m.m.v.v.v.c.c.c.h.d.f.p.f.p.j.k.p.y.k.k.s.k.k.m.N.k.h.z.V.m.m.m.A.A.G.A.F.G.A.V.N.P.D.M.A.D.P.D.D.A.N.G.",
"x.B.D.G.N.A.B.z.A.m.B.m.k.v.h.v.c.f.y.d.d.t.d.d.h.j.h.v.z.p.p.j.h.m.k.k.j.f.k.N.m.m.A.A.Y.P.P.G.J.G.A.Z.x.G.G.G.A.A.F.D.D.G.M.S.",
"N.S.G.A.M.D.D.z.M.D.G.K.v.v.m.C.V.v.f.v.c.c.y.d.f.h.f.k.m.j.p.k.k.m.m.x.m.m.k.k.M.N.A.M.A.D.P.T.K.P.A.Z.m.F.A.A.G.G.P.G.G.D.S.G.",
"x.B.A.I.K.D.A.A.A.D.A.C.C.C.V.C.K.C.C.v.n.c.c.d.k.v.v.m.k.p.k.M.k.z.M.M.B.m.h.N.A.N.M.A.K.D.D.K.P.I.A.J.G.T.I.M.G.G.U.H.G.S.G.P.",
"B.F.H.T.Y.P.Y.P.P.I.K.C.A.b.k.m.v.J.V.v.b.c.c.f.b.b.b.S.M.j.x.v.k.k.x.M.k.z.s.s.A.m.D.P.F.A.G.P.Y.P.N.G.M.G.G.z.A.A.G.H.F.S.D.P.",
"G.I.R.T.Y.I.Y.I.P.K.K.K.D.S.m.C.V.m.v.b.b.b.v.v.m.S.A.K.S.M.v.M.k.M.x.S.x.k.k.k.z.N.M.F.A.A.I.I.P.F.A.P.B.B.M.D.D.D.H.I.H.H.D.I.",
"I.E.W.W.T.I.Y.T.K.C.K.D.S.A.V.V.v.b.v.v.f.c.v.c.v.S.A.P.K.S.C.x.j.M.x.S.H.B.S.k.z.M.N.G.G.P.G.G.I.Y.H.S.S.G.B.G.U.E.W.H.U.D.M.G.",
"U.T.P.I.Y.R.Y.D.K.K.A.C.C.b.V.v.f.v.v.c.f.c.d.c.v.M.M.b.C.C.M.M.k.x.z.k.x.x.x.M.N.N.N.M.G.D.A.P.A.G.G.B.G.H.I.G.G.G.S.G.S.H.G.I.",
"U.E.I.R.Y.K.Y.J.K.K.H.K.m.C.C.b.v.v.V.c.f.c.d.c.v.v.M.A.D.D.C.M.M.B.N.x.M.x.M.M.z.M.F.A.D.I.P.P.F.F.P.G.G.G.I.H.S.I.I.H.H.U.G.I.",
"H.I.R.W.I.Y.Y.Y.K.H.H.C.C.C.m.m.v.V.b.v.v.d.f.v.C.m.C.K.M.M.M.M.x.B.x.x.x.x.B.B.M.M.m.N.L.H.D.A.G.D.G.M.D.P.H.I.G.G.H.K.U.G.D.U.",
"I.I.T.I.K.R.K.Y.I.K.B.S.K.C.C.c.f.v.v.c.f.v.v.c.b.v.v.C.S.M.S.S.B.M.x.B.N.x.N.B.B.M.B.G.P.K.Z.A.G.D.A.Z.G.U.I.I.G.U.I.H.H.I.E.E.",
"I.E.D.V.K.J.K.I.I.K.J.K.K.K.V.b.v.k.d.d.v.d.f.v.h.k.v.f.A.M.M.S.D.S.B.x.x.B.B.S.M.A.G.A.D.L.I.P.A.G.P.P.U.H.U.U.H.H.H.G.U.E.U.U.",
"H.I.S.x.m.D.D.P.Y.K.A.C.B.V.C.b.c.c.d.i.j.f.f.c.h.f.p.i.m.m.M.M.M.M.M.S.D.S.D.M.A.A.P.F.G.P.Y.P.D.A.A.D.I.P.I.I.U.U.E.I.I.I.I.U.",
"v.D.D.D.S.D.v.m.M.m.C.C.D.C.v.v.v.d.d.d.y.d.d.y.f.k.h.v.v.h.k.B.M.k.x.M.B.M.x.h.p.h.m.m.A.P.G.A.D.A.A.m.Z.m.N.G.H.I.I.P.G.G.I.G.",
"S.m.C.K.D.C.p.k.v.m.C.K.D.C.m.C.v.f.y.y.y.y.y.9.d.c.v.h.p.k.p.x.k.M.M.k.x.B.x.p.i.h.h.h.m.D.F.D.D.D.D.N.M.l.j.D.I.P.G.G.G.H.H.x.",
"H.A.D.K.S.B.M.x.B.C.M.S.A.m.C.b.b.v.f.d.f.f.f.t.p.f.v.v.k.k.j.s.k.M.M.S.S.M.k.0.e.h.v.V.z.a.i.l.G.G.A.A.A.A.s.m.I.P.I.I.H.H.S.x.",
"C.A.C.D.A.M.v.k.k.v.k.m.A.C.b.v.v.d.d.f.f.d.y.y.i.f.k.k.f.h.v.v.v.k.m.m.v.j.i.0.p.h.z.V.m.m.k.N.V.m.x.z.B.m.k.s.M.V.I.G.G.A.G.D.",
"D.D.K.D.D.C.C.j.p.C.b.k.b.v.k.b.f.y.9.y.y.y.y.y.f.h.m.k.v.v.j.k.k.k.j.x.k.q.5.q.p.h.N.A.A.M.M.B.z.a.x.M.M.z.j.e.j.M.H.D.S.G.D.B.",
"m.m.B.C.C.S.b.k.v.k.k.p.j.v.j.y.y.y.y.y.y.y.t.y.d.f.k.p.p.i.r.z.M.M.M.p.p.q.e.q.3.k.M.A.A.F.A.M.z.s.3.:.j.e.>.z.a.k.x.M.U.I.P.M.",
"r.j.v.m.C.k.p.k.k.f.j.k.j.p.y.y.<.<.y.y.9.q.<.7.9.p.f.q.r.:.i.m.v.m.k.j.j.i.0.O.5.i.a.m.l.a.k.e.e.O.*.=.r.r.3.5.z.M.M.B.G.D.J.D.",
"Y :.^ &.+.<.&.%.%.&.&._ %.%.! / ^ U M J ....( _ ! ! ( ! ) } a s _ O.K Y Y K ^ ^ ~ ~ { ' / D ^ ^ Y Q P o.] } } { ] ( } ^ } :.^ d ",
"r.3.z.k.p.v.x.p.0.x.v.j.j.r.p.y.r.r.:.<.{ 7.7.9.9.0.q.e.3.%.:.%.r.p.3.q.q.:.q.;.w.i.g.f.h.e.i.n.a.z.a.z.z.l.e.p.s.e.M.p.x.m.r.0.",
"j.s.z.k.v.j.k.j.r.j.j.j.j.y.y.p.p.i.y.7.&.#.2.7.2.9.y.i.q.5.j.i.y.p.q.r.q.0.4.;.4.9.u.a.h.5.5.a.e.s.a.h.z.s.9.w.s.s.z.j.m.m.z.S.",
"k.h.f.h.d.j.j.k.0.q.p.p.p.f.y.r.y.y.0.2.+.#.X.2.;.9.9.9.7.q.r.q.7.9.3.q.e.6.4.e.4.8.9.i.a.l.i.8.q.s.e.i.h.w.h.k.0.j.k.p.p.j.i.k.",
"( 2.u.a.s.p.j.j.j.r.j.p.p.f.r.y.q.9.<.#.$.,.<.3.#.7.0.6.<.Q X.q.7.0.q.<.@.#.2.2.4.5.9.9.w.i.n *.w.w.w.e.i.w.w.9.9.9.7.p.k.j.d.j.",
"j =.e.j.k.i.j.j.<.%.<.<.<.y.y.q.9.7.<.#.#.&.&.<.#.;.q.2.;.z A r.0.2.<.9.2.@...2.2.5.u.w./ d ` h.5.e.q.a.s.e.e.2.1.9.f.d.5.f.k.d.",
"V %.s.p.p.&.0.%.%.%.} %.<.0.<.<.2.<.+.( ( _ _ _ { O.3.0.:.m _ p.5.<.6.9.6.@.@.2.2.8.i.i.*.R } p.5.i.i.e.e.9.9.9.2.u.d.g.q.i.j.p.",
"J -.s.0.&.[ %.%.%.<.r.0.%.0.r.r.7.<.,.X. .#.+.+._ ^ %.<.3.G ! 2.<.2.<.2.*...*.2.2.9.e.i.a.#.] e.a.g.z.a.i.i.i.i.4.2.y.y.y.y.i.7.",
"G %.q.r.r.3.2.2.<.p.q.<.0.<.r.<.6.%.X.$.%.<.#.+.#.+.3.&.&.H x @.7.<.6.,.#.,.6.9.4.4.9.i.i.a.:.) f.h.z.h.9.i.i.h.i.4.y.9.i.i.i.( ",
"G -.q.3.2.3.q.0.<.r.q.r.r.r.p.y.7.2.%.$.+.<.+.&.&.X.O.%.=.G k #.7.2.+.#.X.8.9.1.9.9.u.i.i.a.=.V a.h.A.k.a.i.d.u.h.9.2.2.9.i.d.( ",
"m q.p.r.0.3.3.5.r.0.0.<.r.%.+.<.7.2.<.$.#.<.#.#.X.+.&.<.0.J F 2.7.2.O.X.1.2.1.2.9.9.5.w.i.e.e.4.i.x.A.g.9.g.a.9.e.i.9.4.9.i.i.2.",
") <.y.5.&.0.` %.<.r.0.<.<.<.E E #.<.<.X...+.+._ { X.X.:.<.J ( <.6.<.6.#.+. .,.#.4.;.*.8.e.:.:.8.w.p.z.w.U i.9.9.4.#.9.e.i.i.i.6.",
"&.&.2.:.| 3.:.%.<.3.&.+.&.+.&.J Y J J U K .._ _ X._ _ { O._ #.&.2.O.+.#...{ ;.*.X.O.' { { *.*.*.4.=.2.=.[ :.4.e.4.%.5.4.2.y.i.9.",
":.-.%.%.%.;.3.%.%.O.%.%.+.%.` ` D H H V ( ..( _ ..{ { ) { ..O...#.X...;.^ T #.=.] O.O.*.=.| *.5.:.;.%.;.0.%.5.r.=.] 5.0.&.5.7.:.",
"^ ! } | O.Y ` ^ N N N Y _ _ W Q F A a t c c k H N F Y ^ L D U Y ^ ) ^ { Y J } ..] { ' o.' R ^ ^ { *.=.%.%.-.-.:.| T %.O.| | } [ ",
"4 < 1 7 y 6 < 2 2 & : : 5 0 > > $ % > # & & + # & 1 5 - - = < 5 a e 4 e 9 ; q a 6 7 7 u g h g l n k u a a a c z r 5 a a r m a 8 "
};
